<svg version="1.0" xmlns="http://www.w3.org/2000/svg" width="470.667" height="470.667" viewBox="0 0 353 353">
    <path d="M169.3 106.7c-5.1 1.8-10.2 29.7-7.8 42.5.8 4.2 1 5.4 1.9 10.3.5 2.2 1.7 7.1 2.8 10.8 1.8 6.4 2 15 .3 23.2-.2 1.1-.4 2.3-.4 2.7-.1.3-1.5-.7-3.2-2.3-4.1-3.8-12.4-7.6-20.5-9.3-8.4-1.8-23.4-1.3-29.3.8-12.2 4.5-17.9 15-13.7 25.1.8 1.9 1.4 3.5 1.2 3.5-.1 0-2.5-.6-5.2-1.4-4.5-1.3-12-2.4-27.9-4.2-8.3-.9-65.2-1.2-66.6-.3-.6.3-1 1.2-.7 1.9.2.8 6.6 1.3 23.3 1.5 25.5.4 40.2 1.3 52.3 3.1 8.6 1.2 20.8 3.7 23.1 4.6 1.4.5 3.3 1.1 4.1 1.3s4.2 1.1 7.5 2.1c13.3 3.9 21.7 5.2 30.6 5 7.6-.3 9.8-.8 14.7-3.2 9.4-4.8 12.3-10.5 15.5-30l1.1-7.1 3.9 5.6c5.8 8.2 15.6 16.7 21.5 18.6 2.7.8 6.2-1.7 6.2-4.5 0-.9.4-2 .9-2.5.5-.6 1.6-4.4 2.6-8.5 2.7-11.2 5.4-18 7.3-18.2 7.1-.6 13.1 1.2 22.9 6.9l4.2 2.4-2.2 2.6c-8 9.5-17.4 19.7-23.2 25.1-5.4 5-7.3 6.2-8.9 5.7-1.2-.4-3.5-.9-5.2-1.2-2.7-.4-3.2-.1-4.4 2.7-1 2.3-1 3.7-.2 5.5 1.3 2.8 3.5 3.1 8.1 1.2 3-1.3 3.7-1.1 11.8 3 4.8 2.3 8.8 4.1 9.1 3.9.2-.3 1.5 0 2.9.5 6 2.3 15.2 2.7 30.8 1.3 8.3-.7 49.9-1 78-.4 14.5.2 14.5.2 14.5-.9 0-.5-4.2-1-9.2-1.1-13.8-.4-80.8-.4-92.3 0-8 .3-11.6-.1-17.9-1.9-8.6-2.4-21.1-8.1-19.9-9.1 19.7-16.3 36.3-33.6 36.3-37.6 0-2.3-9.5-8.6-17.9-12-8.5-3.4-14.2-4-19.4-2-4 1.5-4.5 2.1-6.5 7.9-1.2 3.4-3.1 10.5-4.3 15.7s-2.3 9.8-2.6 10.2c-.7 1.2-9.5-4.8-14.5-9.9-2.6-2.6-6.2-7.4-8.2-10.6-3.3-5.5-3.4-6.1-2.8-12.5.4-3.7.7-15.3.6-25.7 0-30-1.6-42-5.1-40.8M139 190.5c14.6 2 24.8 9.4 23.4 17.1-.7 4-5.2 9.4-9.9 11.8-8.4 4.4-36.9 1.3-43.4-4.7-1.3-1.2-3.2-4-4.2-6.3-3.6-7.9 1.2-15.3 11.3-17.3 9.2-1.9 12.9-2 22.8-.6m65 33.4c0 .5-.7 1.1-1.5 1.5-.9.3-1.5 0-1.5-.9 0-.8.7-1.5 1.5-1.5s1.5.4 1.5.9"/>
</svg>
