<?xml version="1.0" standalone="no"?>
<!DOCTYPE svg PUBLIC "-//W3C//DTD SVG 20010904//EN"
 "http://www.w3.org/TR/2001/REC-SVG-20010904/DTD/svg10.dtd">
<svg version="1.0" xmlns="http://www.w3.org/2000/svg"
 width="353.000000pt" height="353.000000pt" viewBox="0 0 353.000000 353.000000"
 preserveAspectRatio="xMidYMid meet">
<metadata>
Created by potrace 1.11, written by Peter Selinger 2001-2013
</metadata>
<g transform="translate(0.000000,353.000000) scale(0.100000,-0.100000)"
fill="#000000" stroke="none">
<path d="M1693 2463 c-51 -18 -102 -297 -78 -425 8 -42 10 -54 19 -103 5 -22
17 -71 28 -108 18 -64 20 -150 3 -232 -2 -11 -4 -23 -4 -27 -1 -3 -15 7 -32
23 -41 38 -124 76 -205 93 -84 18 -234 13 -293 -8 -122 -45 -179 -150 -137
-251 8 -19 14 -35 12 -35 -1 0 -25 6 -52 14 -45 13 -120 24 -279 42 -83 9
-652 12 -666 3 -6 -3 -10 -12 -7 -19 2 -8 66 -13 233 -15 255 -4 402 -13 523
-31 86 -12 208 -37 231 -46 14 -5 33 -11 41 -13 8 -2 42 -11 75 -21 133 -39
217 -52 306 -50 76 3 98 8 147 32 94 48 123 105 155 300 l11 71 39 -56 c58
-82 156 -167 215 -186 27 -8 62 17 62 45 0 9 4 20 9 25 5 6 16 44 26 85 27
112 54 180 73 182 71 6 131 -12 229 -69 l42 -24 -22 -26 c-80 -95 -174 -197
-232 -251 -54 -50 -73 -62 -89 -57 -12 4 -35 9 -52 12 -27 4 -32 1 -44 -27
-10 -23 -10 -37 -2 -55 13 -28 35 -31 81 -12 30 13 37 11 118 -30 48 -23 88
-41 91 -39 2 3 15 0 29 -5 60 -23 152 -27 308 -13 83 7 499 10 780 4 145 -2
145 -2 145 9 0 5 -42 10 -92 11 -138 4 -808 4 -923 0 -80 -3 -116 1 -179 19
-86 24 -211 81 -199 91 197 163 363 336 363 376 0 23 -95 86 -179 120 -85 34
-142 40 -194 20 -40 -15 -45 -21 -65 -79 -12 -34 -31 -105 -43 -157 -12 -52
-23 -98 -26 -102 -7 -12 -95 48 -145 99 -26 26 -62 74 -82 106 -33 55 -34 61
-28 125 4 37 7 153 6 257 0 300 -16 420 -51 408z m-303 -838 c146 -20 248 -94
234 -171 -7 -40 -52 -94 -99 -118 -84 -44 -369 -13 -434 47 -13 12 -32 40 -42
63 -36 79 12 153 113 173 92 19 129 20 228 6z m650 -334 c0 -5 -7 -11 -15 -15
-9 -3 -15 0 -15 9 0 8 7 15 15 15 8 0 15 -4 15 -9z"/>
</g>
</svg>
